<svg width="34" height="34" viewBox="0 0 34 34" fill="none" xmlns="http://www.w3.org/2000/svg">
<g id="BellRinging">
<path id="Vector" d="M7.46378 14.8752C7.46028 13.6207 7.70435 12.3778 8.18201 11.2178C8.65968 10.0577 9.36154 9.00331 10.2474 8.11498C11.1332 7.22665 12.1857 6.52184 13.3444 6.04094C14.5031 5.56004 15.7453 5.3125 16.9998 5.3125C18.2544 5.3125 19.4966 5.56004 20.6553 6.04094C21.814 6.52184 22.8664 7.22665 23.7523 8.11498C24.6381 9.00331 25.34 10.0577 25.8177 11.2178C26.2953 12.3778 26.5394 13.6207 26.5359 14.8752V14.8752C26.5359 19.632 27.5311 22.3923 28.4076 23.9009C28.5021 24.0621 28.5523 24.2454 28.5533 24.4322C28.5543 24.619 28.506 24.8028 28.4133 24.965C28.3206 25.1272 28.1868 25.2621 28.0253 25.356C27.8639 25.45 27.6805 25.4998 27.4937 25.5002H6.50496C6.31812 25.4998 6.13471 25.45 5.97323 25.356C5.81176 25.262 5.67793 25.1271 5.58524 24.9649C5.49256 24.8026 5.4443 24.6188 5.44533 24.432C5.44636 24.2452 5.49665 24.0619 5.59112 23.9007C6.46812 22.392 7.46378 19.6318 7.46378 14.8752H7.46378Z" stroke="#262626" stroke-width="1.5" stroke-linecap="round" stroke-linejoin="round"/>
<path id="Vector_2" d="M12.75 25.5V26.5625C12.75 27.6897 13.1978 28.7707 13.9948 29.5677C14.7918 30.3647 15.8728 30.8125 17 30.8125C18.1272 30.8125 19.2082 30.3647 20.0052 29.5677C20.8022 28.7707 21.25 27.6897 21.25 26.5625V25.5" stroke="#262626" stroke-width="1.5" stroke-linecap="round" stroke-linejoin="round"/>
<path id="Vector_3" d="M24.3594 3.1875C26.5214 4.55236 28.2642 6.48808 29.3954 8.78098" stroke="#262626" stroke-width="1.5" stroke-linecap="round" stroke-linejoin="round"/>
<path id="Vector_4" d="M4.60156 8.78098C5.7328 6.48808 7.47561 4.55236 9.63761 3.1875" stroke="#262626" stroke-width="1.5" stroke-linecap="round" stroke-linejoin="round"/>
</g>
</svg>
